<?xml version="1.0" encoding="UTF-8"?>
<!DOCTYPE svg PUBLIC "-//W3C//DTD SVG 1.1//EN" "http://www.w3.org/Graphics/SVG/1.1/DTD/svg11.dtd">
<!-- Creator: CorelDRAW -->
<svg xmlns="http://www.w3.org/2000/svg" xml:space="preserve" width="3.0777mm" height="3.0777mm" version="1.1" style="shape-rendering:geometricPrecision; text-rendering:geometricPrecision; image-rendering:optimizeQuality; fill-rule:evenodd; clip-rule:evenodd"
viewBox="0 0 12.74 12.74"
 xmlns:xlink="http://www.w3.org/1999/xlink"
 xmlns:xodm="http://www.corel.com/coreldraw/odm/2003">
 <defs>
  <style type="text/css">
   <![CDATA[
    .str0 {stroke:#373435;stroke-width:0.82;stroke-miterlimit:22.9256}
    .fil1 {fill:#FEFEFE}
    .fil0 {fill:#00AFEF}
    .fil2 {fill:#373435;fill-rule:nonzero}
   ]]>
  </style>
 </defs>
 <g id="Camada_x0020_1">
  <metadata id="CorelCorpID_0Corel-Layer"/>
  <g id="_2735573722976">
   <rect class="fil0 str0" x="0.41" y="0.41" width="11.92" height="11.92" rx="1.67" ry="1.67"/>
   <g>
    <path class="fil1" d="M2.4 0.41l9.93 0 0 3.97 -11.92 0 0 -1.99c0,-1.09 0.89,-1.99 1.99,-1.99z"/>
    <path id="_1" class="fil2" d="M12.33 0.83l-9.93 0 0 -0.83 9.93 0 0.41 0.41 -0.41 0.41zm0 -0.83l0.41 0 0 0.41 -0.41 -0.41zm-0.41 4.39l0 -3.97 0.82 0 0 3.97 -0.41 0.41 -0.41 -0.41zm0.82 0l0 0.41 -0.41 0 0.41 -0.41zm-12.33 -0.41l11.92 0 0 0.83 -11.92 0 -0.41 -0.41 0.41 -0.41zm0 0.83l-0.41 0 0 -0.41 0.41 0.41zm0.41 -2.4l0 1.99 -0.82 0 0 -1.99 0 0 0.82 0zm1.57 -2.4l0 0.83 0 0 -0.08 0 -0.08 0.01 -0.08 0.01 -0.08 0.01 -0.08 0.02 -0.08 0.02 -0.07 0.02 -0.07 0.03 -0.07 0.03 -0.07 0.03 -0.07 0.04 -0.06 0.04 -0.06 0.04 -0.06 0.05 -0.06 0.05 -0.05 0.05 -0.05 0.05 -0.05 0.06 -0.05 0.06 -0.04 0.06 -0.04 0.06 -0.04 0.07 -0.03 0.07 -0.03 0.07 -0.03 0.07 -0.02 0.07 -0.02 0.08 -0.02 0.07 -0.01 0.08 -0.01 0.08 -0.01 0.08 -0 0.08 -0.82 0 0 -0.12 0.01 -0.12 0.02 -0.12 0.02 -0.12 0.03 -0.12 0.03 -0.11 0.04 -0.11 0.04 -0.11 0.05 -0.11 0.05 -0.1 0.06 -0.1 0.06 -0.1 0.07 -0.09 0.07 -0.09 0.07 -0.09 0.08 -0.08 0.08 -0.08 0.09 -0.07 0.09 -0.07 0.09 -0.07 0.1 -0.06 0.1 -0.06 0.1 -0.05 0.11 -0.05 0.11 -0.04 0.11 -0.04 0.11 -0.03 0.12 -0.03 0.12 -0.02 0.12 -0.02 0.12 -0.01 0.12 -0 0 0z"/>
   </g>
   <g>
    <polygon class="fil1" points="0.41,8.36 4.08,8.36 4.08,12.33 0.41,12.33 "/>
    <path id="_1_0" class="fil2" d="M4.08 8.76l-3.67 0 0 -0.81 3.67 0 0.41 0.4 -0.41 0.4zm0 -0.81l0.41 0 0 0.4 -0.41 -0.4zm-0.41 4.38l0 -3.97 0.82 0 0 3.97 -0.41 0.4 -0.41 -0.4zm0.82 0l0 0.4 -0.41 0 0.41 -0.4zm-4.08 -0.4l3.67 0 0 0.81 -3.67 0 -0.41 -0.4 0.41 -0.4zm0 0.81l-0.41 0 0 -0.4 0.41 0.4zm0.41 -4.38l0 3.97 -0.82 0 0 -3.97 0.41 -0.4 0.41 0.4zm-0.82 0l0 -0.4 0.41 0 -0.41 0.4z"/>
   </g>
   <g>
    <polygon class="fil1" points="0.41,4.39 7.76,4.39 7.76,8.36 0.41,8.36 "/>
    <path id="_1_1" class="fil2" d="M7.76 4.8l-7.35 0 0 -0.82 7.35 0 0.41 0.41 -0.41 0.41zm0 -0.82l0.41 0 0 0.41 -0.41 -0.41zm-0.41 4.39l0 -3.97 0.82 0 0 3.97 -0.41 0.41 -0.41 -0.41zm0.82 0l0 0.41 -0.41 0 0.41 -0.41zm-7.76 -0.41l7.35 0 0 0.82 -7.35 0 -0.41 -0.41 0.41 -0.41zm0 0.82l-0.41 0 0 -0.41 0.41 0.41zm0.41 -4.39l0 3.97 -0.82 0 0 -3.97 0.41 -0.41 0.41 0.41zm-0.82 0l0 -0.41 0.41 0 -0.41 0.41z"/>
   </g>
  </g>
 </g>
</svg>
